<?xml version="1.0" encoding="UTF-8" standalone="no"?>
<svg
   xmlns:dc="http://purl.org/dc/elements/1.1/"
   xmlns:cc="http://creativecommons.org/ns#"
   xmlns:rdf="http://www.w3.org/1999/02/22-rdf-syntax-ns#"
   xmlns:svg="http://www.w3.org/2000/svg"
   xmlns="http://www.w3.org/2000/svg"
   xmlns:sodipodi="http://sodipodi.sourceforge.net/DTD/sodipodi-0.dtd"
   xmlns:inkscape="http://www.inkscape.org/namespaces/inkscape"
   viewBox="0 0 39.999997 42.889076"
   version="1.1"
   id="svg4"
   sodipodi:docname="mastodon.svg"
   width="39.999996"
   height="42.889076"
   inkscape:version="1.0.2 (e86c870879, 2021-01-15)">
  <metadata
     id="metadata10">
    <rdf:RDF>
      <cc:Work
         rdf:about="">
        <dc:format>image/svg+xml</dc:format>
        <dc:type
           rdf:resource="http://purl.org/dc/dcmitype/StillImage" />
        <dc:title />
      </cc:Work>
    </rdf:RDF>
  </metadata>
  <defs
     id="defs8" />
  <sodipodi:namedview
     pagecolor="#ffffff"
     bordercolor="#666666"
     borderopacity="1"
     objecttolerance="10"
     gridtolerance="10"
     guidetolerance="10"
     inkscape:pageopacity="0"
     inkscape:pageshadow="2"
     inkscape:window-width="1916"
     inkscape:window-height="1030"
     id="namedview6"
     showgrid="false"
     inkscape:zoom="1.6347656"
     inkscape:cx="209.89069"
     inkscape:cy="224.01265"
     inkscape:window-x="0"
     inkscape:window-y="0"
     inkscape:window-maximized="1"
     inkscape:current-layer="svg4"
     inkscape:document-rotation="0" />
  <path
     d="m 38.651361,16.022032 c 0,-8.6771825 -5.686589,-11.2214182 -5.686589,-11.2214182 -5.579464,-2.5620892 -20.39852,-2.5353085 -25.9244208,0 0,0 -5.6865896,2.5442357 -5.6865896,11.2214182 0,10.328703 -0.58919138,23.157006 9.4270624,25.808367 3.615492,0.955205 6.722137,1.160529 9.221738,1.017694 4.534987,-0.249959 7.079223,-1.615812 7.079223,-1.615812 l -0.151762,-3.294115 c 0,0 -3.240552,1.017694 -6.882826,0.901641 -3.606565,-0.12498 -7.409528,-0.392794 -7.998719,-4.820657 -0.05356,-0.392794 -0.08035,-0.803443 -0.08035,-1.240873 7.641634,1.865773 14.158448,0.81237 15.952804,0.598119 5.008126,-0.598119 9.373499,-3.68691 9.926981,-6.507887 0.874861,-4.445717 0.803443,-10.846477 0.803443,-10.846477 z M 31.947078,27.198813 H 27.787029 V 17.004017 c 0,-4.436789 -5.71337,-4.606405 -5.71337,0.615973 v 5.579464 H 17.940392 V 17.61999 c 0,-5.222378 -5.713372,-5.052762 -5.713372,-0.615973 V 27.198813 H 8.0580455 c 0,-10.90004 -0.4642115,-13.203243 1.6425941,-15.622498 2.3121294,-2.5799439 7.1238584,-2.74956 9.2663734,0.544556 l 1.035549,1.740792 1.035548,-1.740792 c 2.151441,-3.3119705 6.972098,-3.1066455 9.266373,-0.544556 2.115734,2.437109 1.642595,4.731385 1.642595,15.622498 z"
     id="path2"
     style="stroke-width:0.0892714" />
</svg>
