<?xml version="1.0" encoding="UTF-8" standalone="no"?>
<svg
   xmlns:dc="http://purl.org/dc/elements/1.1/"
   xmlns:cc="http://creativecommons.org/ns#"
   xmlns:rdf="http://www.w3.org/1999/02/22-rdf-syntax-ns#"
   xmlns:svg="http://www.w3.org/2000/svg"
   xmlns="http://www.w3.org/2000/svg"
   xmlns:sodipodi="http://sodipodi.sourceforge.net/DTD/sodipodi-0.dtd"
   xmlns:inkscape="http://www.inkscape.org/namespaces/inkscape"
   version="1.1"
   x="0px"
   y="0px"
   viewBox="0 0 40.000004 40.000004"
   enable-background="new 0 0 1000 1000"
   xml:space="preserve"
   id="svg40"
   sodipodi:docname="soundcloud.svg"
   width="40.000004"
   height="40.000004"
   inkscape:version="1.0.2 (e86c870879, 2021-01-15)"><defs
   id="defs44" /><sodipodi:namedview
   pagecolor="#ffffff"
   bordercolor="#666666"
   borderopacity="1"
   objecttolerance="10"
   gridtolerance="10"
   guidetolerance="10"
   inkscape:pageopacity="0"
   inkscape:pageshadow="2"
   inkscape:window-width="1916"
   inkscape:window-height="1030"
   id="namedview42"
   showgrid="false"
   inkscape:zoom="6.696"
   inkscape:cx="52.071317"
   inkscape:cy="47.817932"
   inkscape:window-x="0"
   inkscape:window-y="0"
   inkscape:window-maximized="1"
   inkscape:current-layer="svg40" />
<metadata
   id="metadata2"> Svg Vector Icons : http://www.onlinewebfonts.com/icon <rdf:RDF><cc:Work
     rdf:about=""><dc:format>image/svg+xml</dc:format><dc:type
       rdf:resource="http://purl.org/dc/dcmitype/StillImage" /></cc:Work></rdf:RDF></metadata>
<g
   id="g38"
   transform="matrix(0.04081633,0,0,0.04081633,-0.4081633,-0.4081633)"><g
     id="g6"><path
       d="M 500,10 C 229.4,10 10,229.4 10,500 10,770.6 229.4,990 500,990 770.6,990 990,770.6 990,500 990,229.4 770.6,10 500,10 Z M 87.6,633.3 c -0.3,1.9 -1.7,3.3 -3.4,3.3 -1.8,0 -3.2,-1.4 -3.4,-3.3 l -6.2,-46.4 6.2,-47.3 c 0.2,-2 1.6,-3.3 3.4,-3.3 1.7,0 3.1,1.4 3.4,3.3 l 7.4,47.3 z m 31.6,28.3 c -0.3,2 -1.8,3.4 -3.5,3.4 -1.8,0 -3.3,-1.4 -3.5,-3.4 l -8.4,-74.7 8.4,-76.4 c 0.2,-2 1.7,-3.4 3.5,-3.4 1.8,0 3.2,1.4 3.5,3.4 l 9.5,76.4 z m 34.1,12.6 c -0.3,2.4 -2.1,4.2 -4.3,4.2 -2.2,0 -4,-1.7 -4.3,-4.2 l -7.9,-87.3 c 0,0 7.9,-90.7 7.9,-90.7 0.2,-2.4 2,-4.2 4.3,-4.2 2.2,0 4,1.8 4.3,4.2 l 9,90.7 z m 34.5,2.8 c -0.2,2.8 -2.4,4.9 -5,4.9 -2.6,0 -4.8,-2.1 -5,-4.9 l -7.5,-90.1 7.5,-93.2 c 0.2,-2.8 2.4,-4.9 5,-4.9 2.6,0 4.7,2.1 5,4.9 l 8.5,93.2 z m 34.7,0.7 c -0.2,3.2 -2.7,5.6 -5.7,5.6 -3.1,0 -5.5,-2.4 -5.7,-5.6 l -7.1,-90.9 7.1,-86.4 c 0.2,-3.2 2.7,-5.6 5.7,-5.6 3,0 5.5,2.4 5.7,5.6 l 8,86.5 z m 35,0.1 v 0 c -0.2,3.5 -3,6.3 -6.4,6.3 -3.4,0 -6.3,-2.8 -6.5,-6.4 l -6.6,-90.9 6.6,-140.6 c 0.2,-3.6 3,-6.4 6.5,-6.4 3.4,0 6.2,2.8 6.4,6.4 l 7.5,140.6 z m 34.7,-0.1 v 0 c -0.2,3.9 -3.3,7 -7.2,7 -3.8,0 -7,-3.1 -7.1,-7.1 l -6.2,-90.3 c 0,0 6.2,-172.7 6.2,-172.7 0.2,-4 3.3,-7.1 7.2,-7.1 3.8,0 7,3.1 7.2,7.1 l 7,172.7 z m 36,-1.4 v 0 c -0.2,4.3 -3.6,7.8 -7.9,7.8 -4.3,0 -7.7,-3.4 -7.9,-7.8 l -5.8,-89.4 c 0,0 5.8,-187.1 5.8,-187.2 0.2,-4.4 3.6,-7.8 7.9,-7.8 4.3,0 7.7,3.4 7.9,7.8 l 6.5,187.2 z m 35.8,-0.6 c -0.1,4.8 -3.9,8.6 -8.6,8.6 -4.7,0 -8.5,-3.8 -8.6,-8.5 l -5.4,-88.8 5.4,-193.5 c 0.2,-4.8 3.9,-8.6 8.6,-8.6 4.7,0 8.5,3.8 8.6,8.6 l 6,193.5 z m 36.1,-0.8 v 0 c -0.1,5.1 -4.2,9.2 -9.3,9.2 -5.1,0 -9.2,-4.1 -9.3,-9.3 l -4.9,-88 4.9,-188.5 c 0.1,-5.2 4.2,-9.3 9.4,-9.3 5.1,0 9.2,4.1 9.3,9.3 l 5.6,188.6 z m 36.3,-0.5 v 0 c -0.1,5.6 -4.5,10 -10.1,10 -5.5,0 -10,-4.4 -10.1,-10 l -4.5,-87.4 4.5,-181.7 c 0.1,-5.6 4.6,-10 10.1,-10 5.5,0 10,4.4 10.1,10 l 5,181.7 z m 37.1,-9.2 -0.5,8.6 c -0.1,3 -1.3,5.6 -3.2,7.6 -2,1.9 -4.6,3.1 -7.5,3.1 -3.3,0 -6.3,-1.5 -8.3,-3.9 -1.5,-1.8 -2.4,-4 -2.5,-6.4 0,-0.1 0,-0.2 0,-0.4 0,0 -4.1,-86.8 -4.1,-86.9 l 4.1,-214.1 v -2 c 0.1,-3.8 2,-7.1 5,-9 1.7,-1.1 3.7,-1.8 5.8,-1.8 2.2,0 4.3,0.7 6,1.8 2.9,1.9 4.8,5.2 4.8,8.9 l 4.5,216.2 z m 36,7.4 v 0 -0.1 c -0.1,6.3 -5.3,11.5 -11.5,11.5 -6.3,0 -11.5,-5.2 -11.5,-11.4 l -2.3,-42.2 -2.4,-43.4 4.7,-234.6 v -1.2 c 0,-3.6 1.7,-6.8 4.3,-8.9 2,-1.6 4.5,-2.6 7.3,-2.6 2.1,0 4.2,0.6 5.9,1.7 3.3,2 5.6,5.7 5.7,9.8 l 5.1,235.8 z m 311.3,11.6 c 0,0 -289.8,0 -290.1,0 -6.3,-0.6 -11.2,-5.6 -11.3,-12 0,0 0,-332.2 0,-332.2 0.1,-6.1 2.2,-9.2 10.1,-12.3 20.3,-7.9 43.3,-12.5 66.9,-12.5 96.5,0 175.6,74 183.9,168.3 12.5,-5.2 26.1,-8.1 40.5,-8.1 57.8,0 104.6,46.9 104.6,104.7 0,57.8 -46.8,104.1 -104.6,104.1 z"
       id="path4" /></g><g
     id="g8" /><g
     id="g10" /><g
     id="g12" /><g
     id="g14" /><g
     id="g16" /><g
     id="g18" /><g
     id="g20" /><g
     id="g22" /><g
     id="g24" /><g
     id="g26" /><g
     id="g28" /><g
     id="g30" /><g
     id="g32" /><g
     id="g34" /><g
     id="g36" /></g>
</svg>
